<svg xmlns="http://www.w3.org/2000/svg" viewBox="0 0 1024 47.4"><defs><style>.cls-1{fill:#fff;}</style></defs><title>Goccia_White</title><g id="Livello_2" data-name="Livello 2"><g id="Livello_1-2" data-name="Livello 1"><path class="cls-1" d="M697.22,0a3.5,3.5,0,0,1-.8.1H526.26a3.82,3.82,0,0,0-.9.11l-.27.06A11.6,11.6,0,0,0,517,7.41c-2.36,5.91-7.68,5.91-10,0A11.6,11.6,0,0,0,498.91.27l-.27-.06a3.82,3.82,0,0,0-.9-.11H327.58a3.5,3.5,0,0,1-.8-.1H0V47.4H1024V0ZM512,25.63a3.33,3.33,0,1,1,3.33-3.33A3.33,3.33,0,0,1,512,25.63Z"/></g></g></svg>