<svg xmlns="http://www.w3.org/2000/svg" viewBox="0 0 310.25 53.67"><defs><style>.cls-1,.cls-5{fill:#004a7c;}.cls-1{stroke:#004a7c;}.cls-1,.cls-2,.cls-3,.cls-4,.cls-5{stroke-miterlimit:10;}.cls-2,.cls-3{fill:#acdcee;}.cls-2{stroke:#acdcee;}.cls-3,.cls-4,.cls-5{stroke:#fff;}.cls-4{fill:#539ddb;}</style></defs><title>Logo_Colori</title><g id="Livello_2" data-name="Livello 2"><g id="Livello_1-2" data-name="Livello 1"><path class="cls-1" d="M154,12.8c-1.73,0-3.13,1.76-3.13,3.94v6.58a3,3,0,0,0,3,3H154Z"/><path class="cls-1" d="M181,12.8c-1.73,0-3.12,1.76-3.12,3.94v9.6h.1a3,3,0,0,0,3-3Z"/><path class="cls-2" d="M241.46,12.91c-1.73,0-3.12,1.78-3.1,3.95l0,6.58a3,3,0,0,0,3,3h.1Z"/><path class="cls-1" d="M96.83,26.34h0a4.36,4.36,0,0,0,3.8-2.62,12.06,12.06,0,0,1,7.46-7.19A3.76,3.76,0,0,0,110.63,13h0a.08.08,0,0,0-.09-.08A15.11,15.11,0,0,0,96.83,26.34Z"/><path class="cls-1" d="M96.63,29.46a12,12,0,0,1-23.19,2.3,3.34,3.34,0,0,0-3.15-2.3h-.54a15.09,15.09,0,0,0,27,7.63V40a3,3,0,0,0,3,3h.11V31.84a2.39,2.39,0,0,0-2.38-2.38Z"/><path class="cls-1" d="M208.09,29.46A4,4,0,0,0,204.3,32a12,12,0,0,1-22.47,0,4,4,0,0,0-3.78-2.54h0a15.09,15.09,0,0,0,27,7.63V40a3,3,0,0,0,3,3h.11V29.46Z"/><path class="cls-1" d="M154,29.46a4.13,4.13,0,0,0-3.89,2.62A12,12,0,0,1,127.68,32a4,4,0,0,0-3.78-2.54h0a15.09,15.09,0,0,0,27,7.63V49.88a3,3,0,0,0,3,3H154V29.46Z"/><path class="cls-1" d="M84.77,15.93A12,12,0,0,1,96.63,26.34h0A2.55,2.55,0,0,0,99.05,23a15.1,15.1,0,0,0-28.61.14,2.45,2.45,0,0,0,2.32,3.21h.15A12,12,0,0,1,84.77,15.93Z"/><path class="cls-1" d="M111.84,39.88a12,12,0,0,1-11.43-8.44,2.82,2.82,0,0,0-2.7-2h-.88a15.1,15.1,0,0,0,29.34,3.21,2.44,2.44,0,0,0-2.32-3.21h-.15A12,12,0,0,1,111.84,39.88Z"/><path class="cls-1" d="M138.92,15.93a12,12,0,0,1,11.24,7.87,4,4,0,0,0,3.77,2.54h0a15.1,15.1,0,0,0-30,0h0a4,4,0,0,0,3.78-2.54A12,12,0,0,1,138.92,15.93Z"/><path class="cls-1" d="M166,39.88a12,12,0,0,1-11.86-10.42h0a2.55,2.55,0,0,0-2.42,3.35,15.1,15.1,0,0,0,28.61-.14A2.45,2.45,0,0,0,178,29.46h-.15A12,12,0,0,1,166,39.88Z"/><path class="cls-1" d="M193.07,15.93a12,12,0,0,1,11.24,7.87,4,4,0,0,0,3.77,2.54h0a15.1,15.1,0,0,0-30,0h0a4,4,0,0,0,3.78-2.54A12,12,0,0,1,193.07,15.93Z"/><path class="cls-2" d="M265.92,26.25H266a3.94,3.94,0,0,0,3.69-2.57,12,12,0,0,1,7.57-7.34,3.55,3.55,0,0,0,2.39-3.43v-.22A15.14,15.14,0,0,0,265.92,26.25Z"/><path class="cls-2" d="M309.6,29.19a4,4,0,0,0-3.77,2.57,12,12,0,0,1-22.48.12,4,4,0,0,0-3.79-2.52h0a15.09,15.09,0,0,0,27,7.47l0,2.9a3,3,0,0,0,3,3h.11l-.07-13.54Z"/><path class="cls-2" d="M211.42,29.73a4,4,0,0,1,3.81,2.54,12,12,0,0,0,22.47-.14,4,4,0,0,1,3.77-2.56h0a15.09,15.09,0,0,1-26.95,7.77l.07,12.79a3,3,0,0,1-3,3h-.11l-.13-23.42Z"/><path class="cls-2" d="M226.38,16.11a12,12,0,0,0-11.2,7.94,4,4,0,0,1-3.76,2.56h0a15.1,15.1,0,0,1,30-.17h0a4,4,0,0,1-3.79-2.51A12,12,0,0,0,226.38,16.11Z"/><path class="cls-2" d="M253.5,39.91a12,12,0,0,1-11.92-10.34h-.14a2.44,2.44,0,0,0-2.3,3.22,15.1,15.1,0,0,0,28.65-.16,2.44,2.44,0,0,0-2.34-3.19h-.14A12,12,0,0,1,253.5,39.91Z"/><path class="cls-2" d="M294.5,15.74a12,12,0,0,1,11.28,7.81,4,4,0,0,0,3.79,2.52h0a15.1,15.1,0,0,0-30,.16h0a4,4,0,0,0,3.76-2.56A12,12,0,0,1,294.5,15.74Z"/><path class="cls-2" d="M269,12.75c-1.72,0-3.11,1.79-3.1,4l.05,9.6H266a3,3,0,0,0,3-3Z"/><path class="cls-2" d="M266,43c1.72,0,3.11-1.78,3.1-4l0-6.58a3,3,0,0,0-3-3h-.11Z"/><path class="cls-3" d="M5,16.86H5a14,14,0,0,1,2.75-2.64l15-11a14.35,14.35,0,0,1,17.65.57l8.21,6.85a14.34,14.34,0,0,1,4.24,16.05L50,34.37a14.33,14.33,0,0,1-9.71,8.81l-12.2,3.27a14.37,14.37,0,0,1-12.9-2.85L7,36.81A14.34,14.34,0,0,1,5,16.86Z"/><path class="cls-4" d="M2.87,19.52,5,16.85a14.53,14.53,0,0,1,2.74-2.63S55,21,52.82,26.74l-3.49,9.31A10.86,10.86,0,0,1,42,42.72L26.34,46.91a11,11,0,0,1-9.83-2.17L4.42,34.65A10.87,10.87,0,0,1,2.87,19.52Z"/><path class="cls-5" d="M52.82,26.74,49.35,36a11,11,0,0,1-7.44,6.74L26.4,46.89a11,11,0,0,1-9.94-2.2L7.05,36.84C1,31.83,55,21,52.82,26.74Z"/></g></g></svg>